<?xml version="1.0" encoding="iso-8859-1"?>
<!-- Generator: Adobe Illustrator 19.0.0, SVG Export Plug-In . SVG Version: 6.00 Build 0)  -->
<svg version="1.1" id="Capa_1" xmlns="http://www.w3.org/2000/svg" xmlns:xlink="http://www.w3.org/1999/xlink" x="0px" y="0px"
	 viewBox="0 0 512.068 512.068" style="enable-background:new 0 0 512.068 512.068;" xml:space="preserve">
<g>
	<path style="fill:#388E3C;" d="M266.715,362.735c-5.891,0-10.667-4.776-10.667-10.667v-192c0-5.891,4.776-10.667,10.667-10.667
		c5.891,0,10.667,4.776,10.667,10.667v192C277.382,357.959,272.606,362.735,266.715,362.735z"/>
	<path style="fill:#388E3C;" d="M266.715,362.735c-5.891,0-10.667-4.776-10.667-10.667c0-28.352-22.912-45.909-39.616-58.731
		c-4.432-3.248-8.67-6.753-12.693-10.496c-4.092-4.237-3.975-10.99,0.262-15.083c4.134-3.992,10.687-3.992,14.82,0
		c3.384,3.086,6.945,5.971,10.667,8.64c17.856,13.803,47.893,36.779,47.893,75.669C277.382,357.959,272.606,362.735,266.715,362.735
		z"/>
</g>
<path style="fill:#4CAF50;" d="M218.822,206.02c-27.972-24.448-64.334-37.097-101.44-35.285
	c-5.891-0.011-10.675,4.757-10.686,10.648c-0.005,2.84,1.123,5.565,3.134,7.571c9.525,13.954,15.004,30.272,15.829,47.147
	c0.757,16.844,6.438,33.095,16.341,46.741c21.591,20.824,55.976,20.203,76.8-1.388c20.294-21.041,20.294-54.37,0-75.412
	L218.822,206.02z"/>
<path style="fill:#455A64;" d="M403.248,345.668c-2.014-2.686-5.176-4.267-8.533-4.267h-256
	c-5.891,0.007-10.661,4.788-10.654,10.679c0.001,0.992,0.141,1.978,0.414,2.932l42.667,149.333c1.312,4.568,5.487,7.717,10.24,7.723
	h170.667c4.753-0.005,8.928-3.155,10.24-7.723l42.667-149.333C405.881,351.802,405.249,348.344,403.248,345.668z"/>
<path style="fill:#EC407A;" d="M358,66.394c-6.679-20.577-27.701-32.898-48.917-28.672c-2.733-23.405-23.923-40.163-47.328-37.43
	c-19.643,2.294-35.136,17.786-37.43,37.43c-23.103-4.639-45.592,10.33-50.231,33.433c-3.896,19.404,6.063,38.94,24.055,47.186
	c-11.561,20.533-4.287,46.551,16.247,58.111c17.248,9.711,38.91,6.284,52.319-8.277c15.985,17.313,42.979,18.39,60.292,2.404
	c7.054-6.513,11.705-15.214,13.201-24.698c1.522-9.467-0.216-19.17-4.928-27.52C354.937,109.308,364.703,86.972,358,66.394z"/>
<path d="M266.715,106.735c-1.401,0.053-2.793-0.24-4.053-0.853c-1.329-0.46-2.508-1.271-3.413-2.347
	c-1.081-0.897-1.887-2.08-2.325-3.413c-0.62-1.259-0.921-2.651-0.875-4.053c-0.038-2.831,1.115-5.549,3.179-7.488
	c0.9-1.076,2.082-1.881,3.413-2.325c2.597-1.067,5.51-1.067,8.107,0c1.334,0.439,2.517,1.245,3.413,2.325
	c2.086,1.927,3.256,4.648,3.221,7.488c0.049,1.394-0.244,2.778-0.853,4.032c-0.454,1.332-1.266,2.513-2.347,3.413
	C272.266,105.603,269.549,106.775,266.715,106.735z"/>
<path style="fill:#FAFAFA;" d="M267.142,106.735c-5.891,0-10.667-4.776-10.667-10.667s4.776-10.667,10.667-10.667h0.213
	c5.891,0,10.667,4.776,10.667,10.667s-4.776,10.667-10.667,10.667H267.142z"/>
<g>
</g>
<g>
</g>
<g>
</g>
<g>
</g>
<g>
</g>
<g>
</g>
<g>
</g>
<g>
</g>
<g>
</g>
<g>
</g>
<g>
</g>
<g>
</g>
<g>
</g>
<g>
</g>
<g>
</g>
</svg>
