<?xml version="1.0" encoding="UTF-8"?>
<svg width="335px" height="73px" viewBox="0 0 335 73" version="1.1" xmlns="http://www.w3.org/2000/svg" xmlns:xlink="http://www.w3.org/1999/xlink">
    <!-- Generator: Sketch 54.1 (76490) - https://sketchapp.com -->
    <title>Group 17</title>
    <desc>Created with Sketch.</desc>
    <defs>
        <polygon id="path-1" points="0 0.393 35.0736896 0.393 35.0736896 55.3861 0 55.3861"></polygon>
        <polygon id="path-3" points="0 73.6074 334.876 73.6074 334.876 1.0004 0 1.0004"></polygon>
    </defs>
    <g id="Dashboard_Map_Experience" stroke="none" stroke-width="1" fill="none" fill-rule="evenodd">
        <g id="Group-17" transform="translate(0.000000, -1.000000)">
            <g id="Group-3" transform="translate(0.000000, 0.607400)">
                <mask id="mask-2" fill="white">
                    <use xlink:href="#path-1"></use>
                </mask>
                <g id="Clip-2"></g>
                <path d="M35.0728,35.6961 L35.0728,55.3861 L24.9968,55.3861 L24.9968,36.7731 C24.9968,31.0821 21.6138,28.5431 18.1518,28.5431 C14.5368,28.5431 10.0758,30.4661 10.0758,37.0041 L10.0758,55.3861 L-0.0002,55.3861 L-0.0002,0.3921 L10.0758,0.3921 L10.0758,25.1591 C11.6138,20.6211 17.3828,18.6211 20.8438,18.6211 C30.2268,18.6211 35.1498,24.9281 35.0728,35.6961" id="Fill-1" fill="#FF6600" mask="url(#mask-2)"></path>
            </g>
            <path d="M70.2207,34.7659 C69.9137,30.5359 66.3747,27.9959 61.8367,27.9959 C57.7607,27.9959 54.1457,29.9189 53.0687,34.7659 L70.2207,34.7659 Z M80.1427,41.3039 L53.0687,41.3039 C54.1457,45.4569 57.5297,47.7639 62.3757,47.7639 C65.9907,47.7639 69.6057,46.3029 71.7597,43.7639 L77.6817,49.6859 C74.2977,54.2249 67.9907,56.6859 61.6827,56.6859 C50.6847,56.6859 42.6087,49.1489 42.6087,38.0729 C42.6087,26.4589 51.3767,19.2279 61.6827,19.2279 C71.9127,19.2279 80.2967,26.4589 80.2967,37.4579 C80.2967,38.4569 80.2197,39.6879 80.1427,41.3039 L80.1427,41.3039 Z" id="Fill-4" fill="#FF6600"></path>
            <polygon id="Fill-6" fill="#FF6600" points="121.1377 20.1512 98.9867 73.6072 88.2187 73.6072 96.6787 52.6092 82.5267 20.1512 93.6017 20.1512 102.0627 40.8412 110.2927 20.1512"></polygon>
            <path d="M180.7437,20.3821 L178.4367,29.9961 C176.2827,28.8431 174.5147,28.6891 173.2837,28.6891 C168.1307,28.6891 164.5917,33.4581 164.5917,43.6871 L164.5917,55.9941 L154.5167,55.9941 L154.5167,20.1511 L164.5147,20.1511 L164.5147,27.7661 C166.5147,21.7671 170.5917,19.2281 175.0527,19.2281 C176.9747,19.2281 179.1297,19.5361 180.7437,20.3821" id="Fill-8" fill="#FF6600"></path>
            <mask id="mask-4" fill="white">
                <use xlink:href="#path-3"></use>
            </mask>
            <g id="Clip-11"></g>
            <polygon id="Fill-10" fill="#FF6600" mask="url(#mask-4)" points="186.204 55.9944 196.279 55.9944 196.279 20.1514 186.204 20.1514"></polygon>
            <path d="M233.1196,37.9954 C233.1196,32.4584 228.5056,28.7664 223.8126,28.7664 C218.7366,28.7664 214.5066,32.6894 214.5066,37.9954 C214.5066,43.2254 218.7366,47.3024 223.8126,47.3024 C228.7356,47.3024 233.1196,43.4574 233.1196,37.9954 L233.1196,37.9954 Z M243.5036,0.9994 L243.5036,55.9944 L233.4286,55.9944 L233.4286,51.5334 C230.8906,55.0714 225.8906,56.6854 221.8906,56.6854 C212.6606,56.6854 204.2766,49.5334 204.2766,37.9954 C204.2766,26.4584 212.6606,19.3054 221.8906,19.3054 C226.0446,19.3054 230.8906,20.8444 233.4286,24.4584 L233.4286,0.9994 L243.5036,0.9994 Z" id="Fill-12" fill="#FF6600" mask="url(#mask-4)"></path>
            <path d="M280.3442,37.9954 C280.3442,32.4584 275.7302,28.7664 271.0372,28.7664 C265.9612,28.7664 261.7312,32.6894 261.7312,37.9954 C261.7312,43.2254 265.9612,47.3024 271.0372,47.3024 C275.9602,47.3024 280.3442,43.4574 280.3442,37.9954 L280.3442,37.9954 Z M290.7282,20.1514 L290.7282,55.9944 L280.6522,55.9944 L280.6522,51.5334 C278.1142,55.0714 273.1152,56.6854 269.1152,56.6854 C259.8852,56.6854 251.5012,49.5334 251.5012,37.9954 C251.5012,26.4584 259.8852,19.3054 269.1152,19.3054 C273.2682,19.3054 278.1142,20.8444 280.6522,24.4584 L280.6522,20.1514 L290.7282,20.1514 Z" id="Fill-13" fill="#FF6600" mask="url(#mask-4)"></path>
            <polygon id="Fill-14" fill="#FF6600" mask="url(#mask-4)" points="334.8755 20.1512 312.7245 73.6072 301.9565 73.6072 310.4165 52.6092 296.2645 20.1512 307.3405 20.1512 315.8005 40.8412 324.0305 20.1512"></polygon>
            <path d="M108.5205,12.1556 C108.5205,15.8726 105.5075,18.8856 101.7905,18.8856 C98.0735,18.8856 95.0615,15.8726 95.0615,12.1556 C95.0615,8.4386 98.0735,5.4256 101.7905,5.4256 C105.5075,5.4256 108.5205,8.4386 108.5205,12.1556" id="Fill-15" fill="#FF6600" mask="url(#mask-4)"></path>
            <path d="M140.1338,17.8446 L140.1338,20.1516 L147.9788,20.1516 L147.9788,27.9206 L140.1338,27.9206 L140.1338,55.9936 L130.0578,55.9936 L130.0578,27.9206 L123.2888,27.9206 L123.2888,20.1516 L130.0578,20.1516 L130.0578,17.9216 C130.0578,7.1536 135.5958,0.9996 145.8248,0.9996 L150.1328,0.9996 L150.1328,10.3836 L147.8248,10.3836 C142.0568,10.3836 140.2108,13.5366 140.1338,17.8446" id="Fill-16" fill="#FF6600" mask="url(#mask-4)"></path>
        </g>
    </g>
</svg>